<svg width="41" height="12" viewBox="0 0 41 12" fill="none" xmlns="http://www.w3.org/2000/svg">
<path d="M0 0H22V12H0V0Z" fill="#0f7"/>
<path d="M6.53073 11.14C5.4854 11.14 4.65473 10.8833 4.03873 10.37C3.42273 9.84733 3.11007 9.14267 3.10073 8.256H4.85073C4.85073 8.676 5.00007 9.00733 5.29873 9.25C5.60673 9.48333 6.02207 9.6 6.54473 9.6C7.04873 9.6 7.44073 9.48333 7.72073 9.25C8.01007 9.01667 8.15473 8.69467 8.15473 8.284C8.15473 7.93867 8.05207 7.64 7.84674 7.388C7.6414 7.136 7.35673 6.95867 6.99273 6.856L5.81673 6.534C5.01407 6.32867 4.3934 5.96 3.95473 5.428C3.5254 4.896 3.31073 4.252 3.31073 3.496C3.31073 2.91733 3.4414 2.41333 3.70273 1.984C3.96407 1.55467 4.33273 1.22333 4.80873 0.99C5.29407 0.756666 5.8634 0.64 6.51674 0.64C7.50607 0.64 8.29007 0.896666 8.86873 1.41C9.4474 1.914 9.7414 2.59533 9.75073 3.454H8.00073C8.00073 3.05267 7.87007 2.74 7.60873 2.516C7.3474 2.28267 6.97873 2.166 6.50273 2.166C6.03607 2.166 5.67673 2.278 5.42473 2.502C5.18207 2.71667 5.06073 3.01533 5.06073 3.398C5.06073 3.75267 5.15407 4.056 5.34073 4.308C5.53673 4.55067 5.81673 4.72333 6.18073 4.826L7.39874 5.162C8.21074 5.36733 8.8314 5.736 9.26073 6.268C9.69007 6.79067 9.90473 7.43933 9.90473 8.214C9.90473 8.79267 9.76474 9.306 9.48473 9.754C9.20473 10.1927 8.80807 10.5333 8.29473 10.776C7.79073 11.0187 7.20273 11.14 6.53073 11.14Z" fill="black"/>
<path d="M12.3527 11V0.78H15.3907C16.0814 0.78 16.6787 0.915333 17.1827 1.186C17.6961 1.44733 18.0927 1.816 18.3727 2.292C18.6527 2.768 18.7927 3.328 18.7927 3.972V7.794C18.7927 8.438 18.6527 9.00267 18.3727 9.488C18.0927 9.964 17.6961 10.3373 17.1827 10.608C16.6787 10.8693 16.0814 11 15.3907 11H12.3527ZM14.1027 9.39H15.3907C15.8947 9.39 16.2961 9.25 16.5947 8.97C16.8934 8.68067 17.0427 8.28867 17.0427 7.794V3.972C17.0427 3.48667 16.8934 3.104 16.5947 2.824C16.2961 2.53467 15.8947 2.39 15.3907 2.39H14.1027V9.39Z" fill="black"/>
<path d="M28.451 11.25C27.7883 11.25 27.2143 11.1287 26.729 10.886C26.2437 10.634 25.8657 10.284 25.595 9.836C25.3337 9.37867 25.203 8.842 25.203 8.226V3.774C25.203 3.158 25.3337 2.626 25.595 2.178C25.8657 1.72067 26.2437 1.37067 26.729 1.128C27.2143 0.876 27.7883 0.75 28.451 0.75C29.1043 0.75 29.6737 0.876 30.159 1.128C30.6443 1.37067 31.0223 1.72067 31.293 2.178C31.5637 2.626 31.699 3.158 31.699 3.774H29.935C29.935 3.298 29.8043 2.934 29.543 2.682C29.291 2.42067 28.927 2.29 28.451 2.29C27.975 2.29 27.6063 2.416 27.345 2.668C27.0837 2.92 26.953 3.284 26.953 3.76V8.226C26.953 8.702 27.0837 9.07067 27.345 9.332C27.6063 9.584 27.975 9.71 28.451 9.71C28.927 9.71 29.291 9.584 29.543 9.332C29.8043 9.07067 29.935 8.702 29.935 8.226H31.699C31.699 8.842 31.5637 9.37867 31.293 9.836C31.0223 10.284 30.6443 10.634 30.159 10.886C29.6737 11.1287 29.1043 11.25 28.451 11.25Z" fill="white"/>
<path d="M37.423 11.25C36.3777 11.25 35.547 10.9933 34.931 10.48C34.315 9.95733 34.0023 9.25267 33.993 8.366H35.743C35.743 8.786 35.8923 9.11733 36.191 9.36C36.499 9.59333 36.9143 9.71 37.437 9.71C37.941 9.71 38.333 9.59333 38.613 9.36C38.9023 9.12667 39.047 8.80467 39.047 8.394C39.047 8.04867 38.9443 7.75 38.739 7.498C38.5337 7.246 38.249 7.06867 37.885 6.966L36.709 6.644C35.9063 6.43867 35.2857 6.07 34.847 5.538C34.4177 5.006 34.203 4.362 34.203 3.606C34.203 3.02733 34.3337 2.52333 34.595 2.094C34.8563 1.66467 35.225 1.33333 35.701 1.1C36.1863 0.866667 36.7557 0.75 37.409 0.75C38.3983 0.75 39.1823 1.00667 39.761 1.52C40.3397 2.024 40.6337 2.70533 40.643 3.564H38.893C38.893 3.16267 38.7623 2.85 38.501 2.626C38.2397 2.39267 37.871 2.276 37.395 2.276C36.9283 2.276 36.569 2.388 36.317 2.612C36.0743 2.82667 35.953 3.12533 35.953 3.508C35.953 3.86267 36.0463 4.166 36.233 4.418C36.429 4.66067 36.709 4.83333 37.073 4.936L38.291 5.272C39.103 5.47733 39.7237 5.846 40.153 6.378C40.5823 6.90067 40.797 7.54933 40.797 8.324C40.797 8.90267 40.657 9.416 40.377 9.864C40.097 10.3027 39.7003 10.6433 39.187 10.886C38.683 11.1287 38.095 11.25 37.423 11.25Z" fill="white"/>
</svg>
