<svg width="62" height="18" viewBox="0 0 62 18" fill="none" xmlns="http://www.w3.org/2000/svg">
<path d="M43.0787 16.875C42.0847 16.875 41.2237 16.693 40.4957 16.329C39.7677 15.951 39.2007 15.426 38.7947 14.754C38.4027 14.068 38.2067 13.263 38.2067 12.339V5.661C38.2067 4.737 38.4027 3.939 38.7947 3.267C39.2007 2.581 39.7677 2.056 40.4957 1.692C41.2237 1.314 42.0847 1.125 43.0787 1.125C44.0587 1.125 44.9127 1.314 45.6407 1.692C46.3687 2.056 46.9357 2.581 47.3417 3.267C47.7477 3.939 47.9507 4.737 47.9507 5.661H45.3047C45.3047 4.947 45.1087 4.401 44.7167 4.023C44.3387 3.631 43.7927 3.435 43.0787 3.435C42.3647 3.435 41.8117 3.624 41.4197 4.002C41.0277 4.38 40.8317 4.926 40.8317 5.64V12.339C40.8317 13.053 41.0277 13.606 41.4197 13.998C41.8117 14.376 42.3647 14.565 43.0787 14.565C43.7927 14.565 44.3387 14.376 44.7167 13.998C45.1087 13.606 45.3047 13.053 45.3047 12.339H47.9507C47.9507 13.263 47.7477 14.068 47.3417 14.754C46.9357 15.426 46.3687 15.951 45.6407 16.329C44.9127 16.693 44.0587 16.875 43.0787 16.875Z" fill="#FFDDBB"/>
<path d="M56.5367 16.875C54.9687 16.875 53.7227 16.49 52.7987 15.72C51.8747 14.936 51.4057 13.879 51.3917 12.549H54.0167C54.0167 13.179 54.2407 13.676 54.6887 14.04C55.1507 14.39 55.7737 14.565 56.5577 14.565C57.3137 14.565 57.9017 14.39 58.3217 14.04C58.7557 13.69 58.9727 13.207 58.9727 12.591C58.9727 12.073 58.8187 11.625 58.5107 11.247C58.2027 10.869 57.7757 10.603 57.2297 10.449L55.4657 9.966C54.2617 9.658 53.3307 9.105 52.6727 8.307C52.0287 7.509 51.7067 6.543 51.7067 5.409C51.7067 4.541 51.9027 3.785 52.2947 3.141C52.6867 2.497 53.2397 2 53.9537 1.65C54.6817 1.3 55.5357 1.125 56.5157 1.125C57.9997 1.125 59.1757 1.51 60.0437 2.28C60.9117 3.036 61.3527 4.058 61.3667 5.346H58.7417C58.7417 4.744 58.5457 4.275 58.1537 3.939C57.7617 3.589 57.2087 3.414 56.4947 3.414C55.7947 3.414 55.2557 3.582 54.8777 3.918C54.5137 4.24 54.3317 4.688 54.3317 5.262C54.3317 5.794 54.4717 6.249 54.7517 6.627C55.0457 6.991 55.4657 7.25 56.0117 7.404L57.8387 7.908C59.0567 8.216 59.9877 8.769 60.6317 9.567C61.2757 10.351 61.5977 11.324 61.5977 12.486C61.5977 13.354 61.3877 14.124 60.9677 14.796C60.5477 15.454 59.9527 15.965 59.1827 16.329C58.4267 16.693 57.5447 16.875 56.5367 16.875Z" fill="#FFDDBB"/>
<path fill-rule="evenodd" clip-rule="evenodd" d="M0.402222 0H33.4022V18H0.402222V0ZM10.1983 16.71C8.63032 16.71 7.38432 16.325 6.46032 15.555C5.53632 14.771 5.06732 13.714 5.05332 12.384H7.67832C7.67832 13.014 7.90232 13.511 8.35032 13.875C8.81232 14.225 9.43532 14.4 10.2193 14.4C10.9753 14.4 11.5633 14.225 11.9833 13.875C12.4173 13.525 12.6343 13.042 12.6343 12.426C12.6343 11.908 12.4803 11.46 12.1723 11.082C11.8643 10.704 11.4373 10.438 10.8913 10.284L9.12732 9.801C7.92332 9.493 6.99232 8.94 6.33432 8.142C5.69032 7.344 5.36832 6.378 5.36832 5.244C5.36832 4.376 5.56432 3.62 5.95632 2.976C6.34832 2.332 6.90132 1.835 7.61532 1.485C8.34332 1.135 9.19732 0.96 10.1773 0.96C11.6613 0.96 12.8373 1.345 13.7053 2.115C14.5733 2.871 15.0143 3.893 15.0283 5.181H12.4033C12.4033 4.579 12.2073 4.11 11.8153 3.774C11.4233 3.424 10.8703 3.249 10.1563 3.249C9.45632 3.249 8.91732 3.417 8.53932 3.753C8.17532 4.075 7.99332 4.523 7.99332 5.097C7.99332 5.629 8.13332 6.084 8.41332 6.462C8.70732 6.826 9.12732 7.085 9.67332 7.239L11.5003 7.743C12.7183 8.051 13.6493 8.604 14.2933 9.402C14.9373 10.186 15.2593 11.159 15.2593 12.321C15.2593 13.189 15.0493 13.959 14.6293 14.631C14.2093 15.289 13.6143 15.8 12.8443 16.164C12.0883 16.528 11.2063 16.71 10.1983 16.71ZM18.9313 1.17V16.5H23.4883C24.5243 16.5 25.4203 16.304 26.1763 15.912C26.9463 15.506 27.5413 14.946 27.9613 14.232C28.3813 13.504 28.5913 12.657 28.5913 11.691V5.958C28.5913 4.992 28.3813 4.152 27.9613 3.438C27.5413 2.724 26.9463 2.171 26.1763 1.779C25.4203 1.373 24.5243 1.17 23.4883 1.17H18.9313ZM21.5563 14.085H23.4883C24.2443 14.085 24.8463 13.875 25.2943 13.455C25.7423 13.021 25.9663 12.433 25.9663 11.691V5.958C25.9663 5.23 25.7423 4.656 25.2943 4.236C24.8463 3.802 24.2443 3.585 23.4883 3.585H21.5563V14.085Z" fill="#FFDDBB"/>
</svg>
